<svg xmlns="http://www.w3.org/2000/svg" xml:space="preserve" width="2000" height="177" data-id="lg_0XMclNGD1emTyv36hQ" data-version="1"><g data-padding="20"><g transform="translate(10 3.333)scale(.96234)"><path fill="#ff851b" d="M807.573 67.8q.61 0 .93.41.33.41.59.89.26.43 1.04 2.02.79 1.59 1.48 3.13.7 1.54.7 1.89 0 .65-.74 1.26-3.09 2.35-7.69 3.54-4.61 1.2-8.48 1.2-9.12 0-15.66-4.13t-10.04-11.17-3.5-15.82q0-6.3 1.85-11.93 1.84-5.63 5.41-9.95 3.56-4.32 8.75-6.78 5.2-2.45 11.89-2.45 3.95 0 8.43 1.08 4.48 1.09 7.78 3.26.87.57.87 1.3 0 .22-.42 1.27-.41 1.04-.97 2.36-.57 1.33-1.07 2.42l-.67 1.43q-.22.43-.54.89-.33.46-.94.46-.39 0-.72-.2-.32-.19-.67-.37-2.48-1.56-5.02-2.5-2.54-.93-5.54-.93-4.04 0-7.21 1.8-3.18 1.81-5.37 4.8-2.2 3-3.33 6.65-1.12 3.65-1.12 7.3 0 5.52 1.93 10.24 1.93 4.71 5.89 7.6 3.95 2.89 9.95 2.89 3.04 0 5.63-.82 2.58-.83 5.1-2.44l.7-.41q.35-.19.78-.19m6.72-5.84q0-6.04 2.59-10.78 2.58-4.73 7.23-7.49t10.74-2.76q5.99 0 10.47 2.71 4.48 2.72 6.97 7.41 2.5 4.7 2.5 10.56 0 6.04-2.47 10.72-2.48 4.67-6.98 7.32t-10.67 2.65q-6.12 0-10.71-2.54-4.58-2.54-7.13-7.11-2.54-4.56-2.54-10.69m20.34-12.25q-3.3 0-5.52 1.76t-3.35 4.49q-1.13 2.74-1.13 5.74 0 2.83 1.2 5.43 1.19 2.61 3.41 4.26t5.26 1.65q3.3 0 5.5-1.67 2.19-1.67 3.3-4.32t1.11-5.65q0-2.91-1.11-5.59-1.11-2.67-3.28-4.39-2.17-1.71-5.39-1.71m24.94-7.64h5.87q1.6 0 1.78 1.56.13.87.21 1.74l.18 1.74q0 .09.09.5.08.41.3.41t.41-.26q.2-.26.28-.39 2.61-3.35 6.35-4.82 3.74-1.48 7.87-1.48 3.38 0 6.23 1.41t4.59 4q1.73 2.59 1.73 6.15 0 6.73.16 13.51.15 6.78.15 13.52 0 1.82-1.78 1.82h-6.83q-1.65 0-1.78-1.78-.13-1.87-.08-3.76.04-1.89 0-3.76-.05-3.99-.05-7.95v-7.91q0-3.08-1.78-4.63-1.78-1.54-4.74-1.54-3.69 0-6.06 2.26t-3.52 5.56q-1.15 3.31-1.15 6.48 0 3.82-.04 7.63l-.09 7.62q0 1.78-1.78 1.78h-6.83q-1.78 0-1.78-1.82 0-2.43.07-4.85l.11-4.8q.13-10.17.13-20.34v-5.82q0-1.78 1.78-1.78m48.81 40.54q-2.48 0-5.18-.91-2.69-.91-4.47-2.74-.52-.52-.52-1.13 0-.26.28-1.32.28-1.07.63-2.2t.43-1.47q.18-.53.48-1.03.31-.49.96-.49.82 0 2.56 1.08 1.74 1.09 4 1.09 3.95 0 3.95-3.83 0-2.47-1.58-3.43-1.59-.96-3.41-1.91-3.65-1.96-5.57-4.78-1.91-2.83-1.91-7.04 0-5.35 3.15-8.35 3.15-2.99 8.41-2.99.65 0 2.02.17t2.85.54 2.52 1 1.04 1.5q0 .83-.34 1.81-.35.97-.57 1.8-.17.56-.48 1.09-.3.52-1.04.52-.91 0-1.96-.48-1.04-.48-2.26-.48-1.65 0-2.91.98t-1.26 2.76q0 2.04 1.24 3.17t3.06 2q1.83.87 3.65 2.13 1.83 1.26 3.07 3.5 1.24 2.23 1.24 6.15 0 5.56-3.11 9.43-3.11 3.86-8.97 3.86m12.8-20.65q0-6.04 2.59-10.78 2.58-4.73 7.23-7.49t10.74-2.76q5.99 0 10.47 2.71 4.48 2.72 6.97 7.41 2.5 4.7 2.5 10.56 0 6.04-2.47 10.72-2.48 4.67-6.98 7.32t-10.67 2.65q-6.13 0-10.71-2.54t-7.13-7.11q-2.54-4.56-2.54-10.69m20.34-12.25q-3.3 0-5.52 1.76t-3.35 4.49q-1.13 2.74-1.13 5.74 0 2.83 1.2 5.43 1.19 2.61 3.41 4.26t5.26 1.65q3.3 0 5.5-1.67 2.19-1.67 3.3-4.32t1.11-5.65q0-2.91-1.11-5.59-1.11-2.67-3.28-4.39-2.18-1.71-5.39-1.71m23.33-29.11q0-1.78 1.78-1.78h6.87q1.78 0 1.78 1.78 0 7.39-.04 14.78-.05 7.38-.05 14.77t.05 14.78q.04 7.38.04 14.77 0 1.78-1.78 1.78h-6.87q-1.78 0-1.78-1.78 0-7.39.04-14.77.05-7.39.05-14.78t-.05-14.77q-.04-7.39-.04-14.78m34.59 61.93q-6.35 0-11.06-2.52-4.72-2.52-7.32-7.17-2.61-4.65-2.61-11.04 0-5.96 2.47-10.69 2.48-4.74 7-7.5t10.6-2.76q7.52 0 11.8 4.22 4.28 4.21 5.8 11.21.05.13.05.43 0 .66-.33.98-.32.33-.84.54-1.48.7-3.13 1.22-1.66.52-3.22 1.13-4.56 1.7-9.17 3.33t-9.13 3.45q-.34.17-.34.44 0 .13.08.3 1.74 3.13 4.78 4.65 3.05 1.52 6.52 1.52 2.74 0 5.11-.87t4.67-2.17q.31-.18.61-.31t.61-.13q.61 0 .93.37.33.37.55.85.17.3.67 1.37.5 1.06.95 2.13.46 1.06.46 1.37 0 .48-.26.78t-.61.56q-3.08 2.13-7.49 3.22-4.42 1.09-8.15 1.09m-10.91-21.17 8.78-3.04 8.73-3.04q-1.08-2.39-3.02-4.17-1.93-1.78-4.76-1.78-3.3 0-5.47 1.78t-3.22 4.54q-1.04 2.76-1.04 5.71m-169.67 89.94q0 .83-.7 1.39-2.17 1.74-5.8 3.07-3.63 1.32-7.45 2.06t-6.61.74q-8.99 0-16.25-3.46-7.26-3.45-11.52-10.06-4.25-6.6-4.25-16.03 0-9.78 3.8-17.12 3.8-7.35 10.93-11.43 7.13-4.09 17.03-4.09 3.96 0 8.76.83 4.8.82 8.32 2.65 1.04.52 1.04 1.39 0 .26-.47 1.91-.48 1.65-1 3.33-.52 1.67-.7 2.1-.17.57-.48 1-.3.44-1 .44-.3 0-.56-.09l-.52-.17q-3.09-1.26-6.22-1.89t-6.47-.63q-9.65 0-15.41 5.54-5.75 5.54-5.75 15.27 0 9.13 5.41 14.39 5.41 5.25 14.44 5.25 2.83 0 5.92-.56 3.08-.57 5.64-1.78.31-.13.31-.48 0-2.43-.04-4.91-.05-2.48-.05-4.91 0-.52-.56-.52h-10.17q-1.78 0-1.78-1.78v-4.26q0-1.78 1.78-1.78h18.29q1.78 0 1.78 1.78 0 5.69.16 11.4.15 5.72.15 11.41m19.9 7.44q-5.65 0-9.48-2.69-3.82-2.7-5.75-7.15-1.94-4.45-1.94-9.67v-.69q.09-5.48 2.28-10.3 2.2-4.83 6.37-7.8 4.17-2.98 10.08-2.98 3.65 0 6.8 1.37t5.89 3.71q.31.31.52.31.52 0 .5-1.09t.31-2.17q.32-1.09 1.71-1.09h6.13q1.78 0 1.78 1.78l-.02 3.74-.02 3.74q0 4.78.06 9.6.07 4.83.11 9.61l.11 4.54q.07 2.28.07 4.58 0 1.83-1.78 1.83h-6.83q-1.17 0-1.52-.76t-.3-1.81q.04-1.04 0-1.87 0-.13-.05-.43-.04-.3-.26-.3-.17 0-.32.13t-.29.21q-3.04 2.57-6.56 4.11t-7.6 1.54m4.43-9.25q3.09 0 5.71-1.29 2.63-1.28 4.11-4.06.09-.17.41-.89.33-.72.33-.89l-.02-3.04-.02-3q0-.7.04-1.54.04-.85-.04-1.5-.05-.31-.33-.92l-.41-.86q-1.52-2.74-4.3-4.09-2.79-1.35-5.83-1.35-3.21 0-5.65 1.61-2.43 1.61-3.8 4.24t-1.37 5.76 1.44 5.82q1.43 2.69 3.97 4.35 2.54 1.65 5.76 1.65m27.72-30.99h5.91q1.48 0 1.74 1.57.09.34.17 1.39.09 1.04.24 1.95t.42.91q.21 0 .39-.19l.26-.33q2.87-3.43 6.58-4.89 3.72-1.45 8.11-1.45 3.56 0 6.93 1.3 3.36 1.31 4.97 4.78.09.13.18.35.08.22.3.22.17 0 .3-.15l.22-.24q2.7-2.96 6.26-4.59t7.56-1.63q5.3 0 9.15 2.94 3.85 2.93 3.85 8.62 0 4.56.08 9.15l.18 9.15q.08 2.17.19 4.36.11 2.2.11 4.37 0 1.83-1.78 1.83h-6.78q-.96 0-1.33-.44-.37-.43-.45-1.3-.18-1.83-.13-3.72.04-1.89-.05-3.71-.04-3.91-.11-7.82-.06-3.92-.06-7.83 0-3.04-1.46-4.76-1.45-1.71-4.58-1.71-3.61 0-6.13 2.21-2.52 2.22-3.84 5.5-1.33 3.28-1.33 6.46 0 3.82.04 7.64.05 3.83.05 7.7 0 1.78-1.78 1.78h-6.87q-1.78 0-1.78-1.78 0-5.78.08-11.52.09-5.74 0-11.52-.04-2.91-1.45-4.69t-4.5-1.78q-3.69 0-6.21 2.19-2.52 2.2-3.83 5.5-1.3 3.3-1.39 6.56l-.09 5.3q-.04 2.65-.13 5.35 0 1.13.03 2.32.02 1.2-.11 2.33-.09.87-.46 1.3-.37.44-1.32.44h-6.83q-1.78 0-1.78-1.87 0-2.26.11-4.5t.15-4.5q.26-9.51.26-18.99 0-1.78-.08-3.91-.09-2.13.04-3.87.13-1.78 1.78-1.78m87.82 40.46q-6.34 0-11.06-2.52-4.71-2.52-7.32-7.17t-2.61-11.04q0-5.95 2.48-10.69t7-7.5 10.6-2.76q7.52 0 11.8 4.22t5.8 11.21q.04.13.04.44 0 .65-.32.97-.33.33-.85.55-1.48.69-3.13 1.21-1.65.53-3.21 1.13-4.57 1.7-9.17 3.33-4.61 1.63-9.13 3.45-.35.18-.35.44 0 .13.09.3 1.74 3.13 4.78 4.65t6.52 1.52q2.74 0 5.1-.87 2.37-.86 4.68-2.17.3-.17.6-.3.31-.13.61-.13.61 0 .94.37.32.37.54.84.17.31.67 1.37.5 1.07.96 2.13.46 1.07.46 1.37 0 .48-.26.78-.27.31-.61.57-3.09 2.13-7.5 3.21-4.41 1.09-8.15 1.09m-10.9-21.16 8.77-3.05 8.74-3.04q-1.09-2.39-3.02-4.17-1.94-1.78-4.76-1.78-3.3 0-5.48 1.78-2.17 1.78-3.21 4.54t-1.04 5.72"/><rect width="530.63" height="177" x="337.353" y="-400.5" fill="none" rx="0" ry="0" transform="translate(426.08 400.5)"/><path fill="#ff851b" d="M1124.313 149.17a61.2 61.2 0 1 1 0-122.4 61.2 61.2 0 0 1 0 122.4m0-7.2a54 54 0 1 0 0-108 54 54 0 0 0 0 108m-39.6-66.6h18a3.6 3.6 0 0 1 3.6 3.6v18a3.6 3.6 0 0 1-3.6 3.6h-18a3.6 3.6 0 0 1-3.6-3.6v-18c0-1.98 1.62-3.6 3.6-3.6m3.6 7.2v10.8h10.8v-10.8Zm68.4-9a14.4 14.4 0 1 1 0 28.8 14.4 14.4 0 0 1 0-28.8m0 7.2a7.2 7.2 0 1 0 0 14.4 7.2 7.2 0 0 0 0-14.4m-29.286-37.8 12.6 21.6a3.6 3.6 0 0 1-3.114 5.4h-25.2a3.6 3.6 0 0 1-3.114-5.4l12.6-21.6a3.6 3.6 0 0 1 6.228 0m-9.45 19.8h12.672l-6.336-10.854Zm6.336 48.906 6.462-6.444c3.384-3.402 8.478 1.692 5.076 5.076l-6.444 6.462 6.444 6.462a3.6 3.6 0 0 1-5.076 5.076l-6.462-6.444-6.462 6.444c-3.384 3.402-8.478-1.692-5.076-5.076l6.444-6.462-6.444-6.462a3.6 3.6 0 0 1 5.076-5.076Z"/></g><path fill="transparent" stroke="transparent" d="M734.5 0h531v177h-531z"/></g></svg>